<svg xmlns="http://www.w3.org/2000/svg" xmlns:xlink="http://www.w3.org/1999/xlink" contentStyleType="text/css" data-diagram-type="DESCRIPTION" height="437px" preserveAspectRatio="none" style="width:1081px;height:437px;background:#FFFFFF;" version="1.1" viewBox="0 0 1081 437" width="1081px" zoomAndPan="magnify"><?plantuml 1.2026.6?><defs/><g><!--cluster daymark--><g class="cluster" data-qualified-name="daymark" data-source-line="1" id="ent0001"><path d="M8.5,6 L72.1992,6 A3.75,3.75 0 0 1 74.6992,8.5 L81.6992,28.4883 L848.5,28.4883 A2.5,2.5 0 0 1 851,30.9883 L851,420.45 A2.5,2.5 0 0 1 848.5,422.95 L8.5,422.95 A2.5,2.5 0 0 1 6,420.45 L6,8.5 A2.5,2.5 0 0 1 8.5,6" fill="none" style="stroke:#000000;stroke-width:1.5;"/><line style="stroke:#000000;stroke-width:1.5;" x1="6" x2="81.6992" y1="28.4883" y2="28.4883"/><text fill="#000000" font-family="sans-serif" font-size="14" font-weight="700" lengthAdjust="spacing" textLength="62.6992" x="10" y="21.5352">daymark</text></g><!--entity window.py--><g class="entity" data-qualified-name="daymark.window.py" data-source-line="2" id="ent0002"><rect fill="#F1F1F1" height="46.4883" rx="2.5" ry="2.5" style="stroke:#181818;stroke-width:0.5;" width="112.2764" x="221.86" y="41"/><rect fill="#F1F1F1" height="10" style="stroke:#181818;stroke-width:0.5;" width="15" x="314.1364" y="46"/><rect fill="#F1F1F1" height="2" style="stroke:#181818;stroke-width:0.5;" width="4" x="312.1364" y="48"/><rect fill="#F1F1F1" height="2" style="stroke:#181818;stroke-width:0.5;" width="4" x="312.1364" y="52"/><text fill="#000000" font-family="sans-serif" font-size="14" lengthAdjust="spacing" textLength="72.2764" x="236.86" y="74.5352">window.py</text></g><!--entity views.py--><g class="entity" data-qualified-name="daymark.views.py" data-source-line="2" id="ent0003"><rect fill="#F1F1F1" height="46.4883" rx="2.5" ry="2.5" style="stroke:#181818;stroke-width:0.5;" width="97.5723" x="53.21" y="147.49"/><rect fill="#F1F1F1" height="10" style="stroke:#181818;stroke-width:0.5;" width="15" x="130.7823" y="152.49"/><rect fill="#F1F1F1" height="2" style="stroke:#181818;stroke-width:0.5;" width="4" x="128.7823" y="154.49"/><rect fill="#F1F1F1" height="2" style="stroke:#181818;stroke-width:0.5;" width="4" x="128.7823" y="158.49"/><text fill="#000000" font-family="sans-serif" font-size="14" lengthAdjust="spacing" textLength="57.5723" x="68.21" y="181.0252">views.py</text></g><!--entity dialogs.py--><g class="entity" data-qualified-name="daymark.dialogs.py" data-source-line="3" id="ent0005"><rect fill="#F1F1F1" height="46.4883" rx="2.5" ry="2.5" style="stroke:#181818;stroke-width:0.5;" width="109.6582" x="223.17" y="147.49"/><rect fill="#F1F1F1" height="10" style="stroke:#181818;stroke-width:0.5;" width="15" x="312.8282" y="152.49"/><rect fill="#F1F1F1" height="2" style="stroke:#181818;stroke-width:0.5;" width="4" x="310.8282" y="154.49"/><rect fill="#F1F1F1" height="2" style="stroke:#181818;stroke-width:0.5;" width="4" x="310.8282" y="158.49"/><text fill="#000000" font-family="sans-serif" font-size="14" lengthAdjust="spacing" textLength="69.6582" x="238.17" y="181.0252">dialogs.py</text></g><!--entity database.py--><g class="entity" data-qualified-name="daymark.database.py" data-source-line="4" id="ent0007"><rect fill="#F1F1F1" height="46.4883" rx="2.5" ry="2.5" style="stroke:#181818;stroke-width:0.5;" width="121.5459" x="514.23" y="253.97"/><rect fill="#F1F1F1" height="10" style="stroke:#181818;stroke-width:0.5;" width="15" x="615.7759" y="258.97"/><rect fill="#F1F1F1" height="2" style="stroke:#181818;stroke-width:0.5;" width="4" x="613.7759" y="260.97"/><rect fill="#F1F1F1" height="2" style="stroke:#181818;stroke-width:0.5;" width="4" x="613.7759" y="264.97"/><text fill="#000000" font-family="sans-serif" font-size="14" lengthAdjust="spacing" textLength="81.5459" x="529.23" y="287.5052">database.py</text></g><!--entity theme.py--><g class="entity" data-qualified-name="daymark.theme.py" data-source-line="5" id="ent0009"><rect fill="#F1F1F1" height="46.4883" rx="2.5" ry="2.5" style="stroke:#181818;stroke-width:0.5;" width="103.1504" x="367.42" y="147.49"/><rect fill="#F1F1F1" height="10" style="stroke:#181818;stroke-width:0.5;" width="15" x="450.5704" y="152.49"/><rect fill="#F1F1F1" height="2" style="stroke:#181818;stroke-width:0.5;" width="4" x="448.5704" y="154.49"/><rect fill="#F1F1F1" height="2" style="stroke:#181818;stroke-width:0.5;" width="4" x="448.5704" y="158.49"/><text fill="#000000" font-family="sans-serif" font-size="14" lengthAdjust="spacing" textLength="63.1504" x="382.42" y="181.0252">theme.py</text></g><!--entity i18n.py--><g class="entity" data-qualified-name="daymark.i18n.py" data-source-line="6" id="ent0011"><rect fill="#F1F1F1" height="46.4883" rx="2.5" ry="2.5" style="stroke:#181818;stroke-width:0.5;" width="90.9961" x="505.5" y="147.49"/><rect fill="#F1F1F1" height="10" style="stroke:#181818;stroke-width:0.5;" width="15" x="576.4961" y="152.49"/><rect fill="#F1F1F1" height="2" style="stroke:#181818;stroke-width:0.5;" width="4" x="574.4961" y="154.49"/><rect fill="#F1F1F1" height="2" style="stroke:#181818;stroke-width:0.5;" width="4" x="574.4961" y="158.49"/><text fill="#000000" font-family="sans-serif" font-size="14" lengthAdjust="spacing" textLength="50.9961" x="520.5" y="181.0252">i18n.py</text></g><!--entity widgets.py--><g class="entity" data-qualified-name="daymark.widgets.py" data-source-line="8" id="ent0013"><rect fill="#F1F1F1" height="46.4883" rx="2.5" ry="2.5" style="stroke:#181818;stroke-width:0.5;" width="113.1035" x="366.45" y="253.97"/><rect fill="#F1F1F1" height="10" style="stroke:#181818;stroke-width:0.5;" width="15" x="459.5535" y="258.97"/><rect fill="#F1F1F1" height="2" style="stroke:#181818;stroke-width:0.5;" width="4" x="457.5535" y="260.97"/><rect fill="#F1F1F1" height="2" style="stroke:#181818;stroke-width:0.5;" width="4" x="457.5535" y="264.97"/><text fill="#000000" font-family="sans-serif" font-size="14" lengthAdjust="spacing" textLength="73.1035" x="381.45" y="287.5052">widgets.py</text></g><!--entity analytics.py--><g class="entity" data-qualified-name="daymark.analytics.py" data-source-line="9" id="ent0015"><rect fill="#F1F1F1" height="46.4883" rx="2.5" ry="2.5" style="stroke:#181818;stroke-width:0.5;" width="119.6592" x="22.17" y="253.97"/><rect fill="#F1F1F1" height="10" style="stroke:#181818;stroke-width:0.5;" width="15" x="121.8292" y="258.97"/><rect fill="#F1F1F1" height="2" style="stroke:#181818;stroke-width:0.5;" width="4" x="119.8292" y="260.97"/><rect fill="#F1F1F1" height="2" style="stroke:#181818;stroke-width:0.5;" width="4" x="119.8292" y="264.97"/><text fill="#000000" font-family="sans-serif" font-size="14" lengthAdjust="spacing" textLength="79.6592" x="37.17" y="287.5052">analytics.py</text></g><!--entity calendar_utils.py--><g class="entity" data-qualified-name="daymark.calendar_utils.py" data-source-line="10" id="ent0017"><rect fill="#F1F1F1" height="46.4883" rx="2.5" ry="2.5" style="stroke:#181818;stroke-width:0.5;" width="154.4199" x="176.79" y="253.97"/><rect fill="#F1F1F1" height="10" style="stroke:#181818;stroke-width:0.5;" width="15" x="311.2099" y="258.97"/><rect fill="#F1F1F1" height="2" style="stroke:#181818;stroke-width:0.5;" width="4" x="309.2099" y="260.97"/><rect fill="#F1F1F1" height="2" style="stroke:#181818;stroke-width:0.5;" width="4" x="309.2099" y="264.97"/><text fill="#000000" font-family="sans-serif" font-size="14" lengthAdjust="spacing" textLength="114.4199" x="191.79" y="287.5052">calendar_utils.py</text></g><!--entity models.py--><g class="entity" data-qualified-name="daymark.models.py" data-source-line="14" id="ent0021"><rect fill="#F1F1F1" height="46.4883" rx="2.5" ry="2.5" style="stroke:#181818;stroke-width:0.5;" width="110.0205" x="441.99" y="360.46"/><rect fill="#F1F1F1" height="10" style="stroke:#181818;stroke-width:0.5;" width="15" x="532.0105" y="365.46"/><rect fill="#F1F1F1" height="2" style="stroke:#181818;stroke-width:0.5;" width="4" x="530.0105" y="367.46"/><rect fill="#F1F1F1" height="2" style="stroke:#181818;stroke-width:0.5;" width="4" x="530.0105" y="371.46"/><text fill="#000000" font-family="sans-serif" font-size="14" lengthAdjust="spacing" textLength="70.0205" x="456.99" y="393.9952">models.py</text></g><!--entity templates.py--><g class="entity" data-qualified-name="daymark.templates.py" data-source-line="16" id="ent0024"><rect fill="#F1F1F1" height="46.4883" rx="2.5" ry="2.5" style="stroke:#181818;stroke-width:0.5;" width="127.4248" x="670.29" y="253.97"/><rect fill="#F1F1F1" height="10" style="stroke:#181818;stroke-width:0.5;" width="15" x="777.7148" y="258.97"/><rect fill="#F1F1F1" height="2" style="stroke:#181818;stroke-width:0.5;" width="4" x="775.7148" y="260.97"/><rect fill="#F1F1F1" height="2" style="stroke:#181818;stroke-width:0.5;" width="4" x="775.7148" y="264.97"/><text fill="#000000" font-family="sans-serif" font-size="14" lengthAdjust="spacing" textLength="87.4248" x="685.29" y="287.5052">templates.py</text></g><!--entity recurrence.py--><g class="entity" data-qualified-name="daymark.recurrence.py" data-source-line="19" id="ent0027"><rect fill="#F1F1F1" height="46.4883" rx="2.5" ry="2.5" style="stroke:#181818;stroke-width:0.5;" width="132.8594" x="586.57" y="360.46"/><rect fill="#F1F1F1" height="10" style="stroke:#181818;stroke-width:0.5;" width="15" x="699.4294" y="365.46"/><rect fill="#F1F1F1" height="2" style="stroke:#181818;stroke-width:0.5;" width="4" x="697.4294" y="367.46"/><rect fill="#F1F1F1" height="2" style="stroke:#181818;stroke-width:0.5;" width="4" x="697.4294" y="371.46"/><text fill="#000000" font-family="sans-serif" font-size="14" lengthAdjust="spacing" textLength="92.8594" x="601.57" y="393.9952">recurrence.py</text></g><!--entity notifications.py--><g class="entity" data-qualified-name="daymark.notifications.py" data-source-line="21" id="ent0030"><rect fill="#F1F1F1" height="46.4883" rx="2.5" ry="2.5" style="stroke:#181818;stroke-width:0.5;" width="144.9316" x="660.53" y="41"/><rect fill="#F1F1F1" height="10" style="stroke:#181818;stroke-width:0.5;" width="15" x="785.4616" y="46"/><rect fill="#F1F1F1" height="2" style="stroke:#181818;stroke-width:0.5;" width="4" x="783.4616" y="48"/><rect fill="#F1F1F1" height="2" style="stroke:#181818;stroke-width:0.5;" width="4" x="783.4616" y="52"/><text fill="#000000" font-family="sans-serif" font-size="14" lengthAdjust="spacing" textLength="104.9316" x="675.53" y="74.5352">notifications.py</text></g><!--entity Android Notification API--><g class="entity" data-qualified-name="daymark.Android Notification API" data-source-line="21" id="ent0031"><rect fill="#F1F1F1" height="46.4883" rx="2.5" ry="2.5" style="stroke:#181818;stroke-width:0.5;" width="203.5293" x="631.24" y="147.49"/><rect fill="#F1F1F1" height="10" style="stroke:#181818;stroke-width:0.5;" width="15" x="814.7693" y="152.49"/><rect fill="#F1F1F1" height="2" style="stroke:#181818;stroke-width:0.5;" width="4" x="812.7693" y="154.49"/><rect fill="#F1F1F1" height="2" style="stroke:#181818;stroke-width:0.5;" width="4" x="812.7693" y="158.49"/><text fill="#000000" font-family="sans-serif" font-size="14" lengthAdjust="spacing" textLength="163.5293" x="646.24" y="181.0252">Android Notification API</text></g><g class="entity" data-qualified-name="GMN33" data-source-line="25" id="ent0034"><path d="M869.55,264.56 L869.55,289.8705 L1066.4571,289.8705 L1066.4571,274.56 L1056.4571,264.56 L869.55,264.56" fill="#FEFFDD" style="stroke:#181818;stroke-width:0.5;"/><path d="M1056.4571,264.56 L1056.4571,274.56 L1066.4571,274.56 L1056.4571,264.56" fill="#FEFFDD" style="stroke:#181818;stroke-width:1;"/><text fill="#000000" font-family="sans-serif" font-size="13" lengthAdjust="spacing" textLength="175.9071" x="875.55" y="282.1284">SQL &#1576;&#1575;&#1740;&#1583; &#1601;&#1602;&#1591; &#1575;&#1586; &#1575;&#1740;&#1606; &#1605;&#1575;&#1688;&#1608;&#1604; &#1593;&#1576;&#1608;&#1585; &#1705;&#1606;&#1583;.</text></g><!--link window.py to views.py--><g class="link" data-entity-1="ent0002" data-entity-2="ent0003" data-link-type="dependency" data-source-line="2" id="lnk4"><path d="M239.81,87.91 C210.29,105.44 173.92,127.0386 144.41,144.5486" fill="none" id="window.py-to-views.py" style="stroke:#181818;stroke-width:1;"/><polygon fill="#181818" points="140.11,147.1,149.8912,145.9474,144.41,144.5486,145.8089,139.0674,140.11,147.1" style="stroke:#181818;stroke-width:1;stroke-linejoin:miter;stroke-miterlimit:10;"/></g><!--link window.py to dialogs.py--><g class="link" data-entity-1="ent0002" data-entity-2="ent0005" data-link-type="dependency" data-source-line="3" id="lnk6"><path d="M278,87.91 C278,105.44 278,124.59 278,142.1" fill="none" id="window.py-to-dialogs.py" style="stroke:#181818;stroke-width:1;"/><polygon fill="#181818" points="278,147.1,282,138.1,278,142.1,274,138.1,278,147.1" style="stroke:#181818;stroke-width:1;stroke-linejoin:miter;stroke-miterlimit:10;"/></g><!--link window.py to database.py--><g class="link" data-entity-1="ent0002" data-entity-2="ent0007" data-link-type="dependency" data-source-line="4" id="lnk8"><path d="M249.5,87.88 C219.04,114.8 178.58,160.33 206,193.97 C289.42,296.34 368.75,222.51 497,253.97 C502.47,255.32 503.3111,255.4832 508.9711,257.0032" fill="none" id="window.py-to-database.py" style="stroke:#181818;stroke-width:1;"/><polygon fill="#181818" points="513.8,258.3,506.1454,252.1026,508.9711,257.0032,504.0705,259.8289,513.8,258.3" style="stroke:#181818;stroke-width:1;stroke-linejoin:miter;stroke-miterlimit:10;"/></g><!--link window.py to theme.py--><g class="link" data-entity-1="ent0002" data-entity-2="ent0009" data-link-type="dependency" data-source-line="5" id="lnk10"><path d="M308.59,87.91 C332.25,105.44 360.8127,126.6132 384.4427,144.1232" fill="none" id="window.py-to-theme.py" style="stroke:#181818;stroke-width:1;"/><polygon fill="#181818" points="388.46,147.1,383.6104,138.5279,384.4427,144.1232,378.8474,144.9555,388.46,147.1" style="stroke:#181818;stroke-width:1;stroke-linejoin:miter;stroke-miterlimit:10;"/></g><!--link window.py to i18n.py--><g class="link" data-entity-1="ent0002" data-entity-2="ent0011" data-link-type="dependency" data-source-line="6" id="lnk12"><path d="M334.57,86.89 C385.17,106.26 453.7304,132.5027 500.6804,150.4727" fill="none" id="window.py-to-i18n.py" style="stroke:#181818;stroke-width:1;"/><polygon fill="#181818" points="505.35,152.26,498.3745,145.3072,500.6804,150.4727,495.5148,152.7786,505.35,152.26" style="stroke:#181818;stroke-width:1;stroke-linejoin:miter;stroke-miterlimit:10;"/></g><!--link views.py to widgets.py--><g class="link" data-entity-1="ent0003" data-entity-2="ent0013" data-link-type="dependency" data-source-line="8" id="lnk14"><path d="M151.1,187.71 C208.97,206.55 300.2155,236.2525 361.2955,256.1325" fill="none" id="views.py-to-widgets.py" style="stroke:#181818;stroke-width:1;"/><polygon fill="#181818" points="366.05,257.68,358.7299,251.0909,361.2955,256.1325,356.2539,258.6982,366.05,257.68" style="stroke:#181818;stroke-width:1;stroke-linejoin:miter;stroke-miterlimit:10;"/></g><!--link views.py to analytics.py--><g class="link" data-entity-1="ent0003" data-entity-2="ent0015" data-link-type="dependency" data-source-line="9" id="lnk16"><path d="M97.66,194.4 C94.31,211.93 90.619,231.159 87.269,248.679" fill="none" id="views.py-to-analytics.py" style="stroke:#181818;stroke-width:1;"/><polygon fill="#181818" points="86.33,253.59,91.9491,245.5014,87.269,248.679,84.0914,243.9989,86.33,253.59" style="stroke:#181818;stroke-width:1;stroke-linejoin:miter;stroke-miterlimit:10;"/></g><!--link views.py to calendar_utils.py--><g class="link" data-entity-1="ent0003" data-entity-2="ent0017" data-link-type="dependency" data-source-line="10" id="lnk18"><path d="M134.98,194.4 C160.48,211.93 191.48,233.2371 216.96,250.7571" fill="none" id="views.py-to-calendar_utils.py" style="stroke:#181818;stroke-width:1;"/><polygon fill="#181818" points="221.08,253.59,215.9303,245.1947,216.96,250.7571,211.3976,251.7868,221.08,253.59" style="stroke:#181818;stroke-width:1;stroke-linejoin:miter;stroke-miterlimit:10;"/></g><!--link views.py to database.py--><g class="link" data-entity-1="ent0003" data-entity-2="ent0007" data-link-type="dependency" data-source-line="11" id="lnk19"><path d="M151.28,186.92 C160.13,189.43 169.31,191.89 178,193.97 C318.29,227.61 356.6,220.82 497,253.97 C502.48,255.27 503.3263,255.4212 508.9963,256.9212" fill="none" id="views.py-to-database.py" style="stroke:#181818;stroke-width:1;"/><polygon fill="#181818" points="513.83,258.2,506.1523,252.0313,508.9963,256.9212,504.1063,259.7652,513.83,258.2" style="stroke:#181818;stroke-width:1;stroke-linejoin:miter;stroke-miterlimit:10;"/></g><!--link dialogs.py to widgets.py--><g class="link" data-entity-1="ent0005" data-entity-2="ent0013" data-link-type="dependency" data-source-line="13" id="lnk20"><path d="M309.46,194.4 C333.78,211.93 363.2337,233.1466 387.5437,250.6666" fill="none" id="dialogs.py-to-widgets.py" style="stroke:#181818;stroke-width:1;"/><polygon fill="#181818" points="391.6,253.59,386.6373,245.0829,387.5437,250.6666,381.9599,251.573,391.6,253.59" style="stroke:#181818;stroke-width:1;stroke-linejoin:miter;stroke-miterlimit:10;"/></g><!--link dialogs.py to models.py--><g class="link" data-entity-1="ent0005" data-entity-2="ent0021" data-link-type="dependency" data-source-line="14" id="lnk22"><path d="M333.17,189.82 C338.82,191.36 344.5,192.78 350,193.97 C451.81,216.1 746.2,175.73 815,253.97 C877.46,325.02 735.19,314.57 569,360.46 C563.58,361.96 562.7345,362.1613 557.1245,363.8213" fill="none" id="dialogs.py-to-models.py" style="stroke:#181818;stroke-width:1;"/><polygon fill="#181818" points="552.33,365.24,562.0951,366.522,557.1245,363.8213,559.8252,358.8507,552.33,365.24" style="stroke:#181818;stroke-width:1;stroke-linejoin:miter;stroke-miterlimit:10;"/></g><!--link dialogs.py to database.py--><g class="link" data-entity-1="ent0005" data-entity-2="ent0007" data-link-type="dependency" data-source-line="15" id="lnk23"><path d="M333.17,191.14 C384.5,209.2 456.1433,234.4008 509.2733,253.0908" fill="none" id="dialogs.py-to-database.py" style="stroke:#181818;stroke-width:1;"/><polygon fill="#181818" points="513.99,254.75,506.8274,247.9901,509.2733,253.0908,504.1726,255.5367,513.99,254.75" style="stroke:#181818;stroke-width:1;stroke-linejoin:miter;stroke-miterlimit:10;"/></g><!--link dialogs.py to templates.py--><g class="link" data-entity-1="ent0005" data-entity-2="ent0024" data-link-type="dependency" data-source-line="16" id="lnk25"><path d="M333.26,189.44 C338.89,191.05 344.55,192.59 350,193.97 C483.1,227.61 519.39,222.44 653,253.97 C658.54,255.28 659.4184,255.4516 665.1584,256.9316" fill="none" id="dialogs.py-to-templates.py" style="stroke:#181818;stroke-width:1;"/><polygon fill="#181818" points="670,258.18,662.2837,252.0596,665.1584,256.9316,660.2863,259.8063,670,258.18" style="stroke:#181818;stroke-width:1;stroke-linejoin:miter;stroke-miterlimit:10;"/></g><!--link database.py to models.py--><g class="link" data-entity-1="ent0007" data-entity-2="ent0021" data-link-type="dependency" data-source-line="18" id="lnk26"><path d="M558.08,300.89 C544.99,318.42 529.9612,338.5534 516.8812,356.0734" fill="none" id="database.py-to-models.py" style="stroke:#181818;stroke-width:1;"/><polygon fill="#181818" points="513.89,360.08,522.4794,355.2611,516.8812,356.0734,516.0689,350.4752,513.89,360.08" style="stroke:#181818;stroke-width:1;stroke-linejoin:miter;stroke-miterlimit:10;"/></g><!--link database.py to recurrence.py--><g class="link" data-entity-1="ent0007" data-entity-2="ent0027" data-link-type="dependency" data-source-line="19" id="lnk28"><path d="M591.92,300.89 C605.01,318.42 620.0388,338.5534 633.1188,356.0734" fill="none" id="database.py-to-recurrence.py" style="stroke:#181818;stroke-width:1;"/><polygon fill="#181818" points="636.11,360.08,633.9311,350.4752,633.1188,356.0734,627.5206,355.2611,636.11,360.08" style="stroke:#181818;stroke-width:1;stroke-linejoin:miter;stroke-miterlimit:10;"/></g><!--link analytics.py to models.py--><g class="link" data-entity-1="ent0015" data-entity-2="ent0021" data-link-type="dependency" data-source-line="20" id="lnk29"><path d="M142.04,295.83 C147.76,297.43 153.49,299 159,300.46 C258.22,326.85 369.8395,353.3295 436.9195,368.8995" fill="none" id="analytics.py-to-models.py" style="stroke:#181818;stroke-width:1;"/><polygon fill="#181818" points="441.79,370.03,433.9275,364.0987,436.9195,368.8995,432.1187,371.8915,441.79,370.03" style="stroke:#181818;stroke-width:1;stroke-linejoin:miter;stroke-miterlimit:10;"/></g><!--link notifications.py to Android Notification API--><g class="link" data-entity-1="ent0030" data-entity-2="ent0031" data-link-type="dependency" data-source-line="21" id="lnk32"><path d="M733,87.91 C733,105.44 733,124.59 733,142.1" fill="none" id="notifications.py-to-Android Notification API" style="stroke:#181818;stroke-width:1;"/><polygon fill="#181818" points="733,147.1,737,138.1,733,142.1,729,138.1,733,147.1" style="stroke:#181818;stroke-width:1;stroke-linejoin:miter;stroke-miterlimit:10;"/></g><!--link database.py to GMN33--><g class="link" data-entity-1="ent0007" data-entity-2="ent0034" data-link-type="association" data-source-line="25" id="lnk35"><path d="M607.68,253.51 C625.35,242.16 648.09,229.8 670.5,223.97 C740.61,205.75 762.34,210.4 833.5,223.97 C873.71,231.64 917.24,251.13 943.57,264.28" fill="none" id="database.py-GMN33" style="stroke:#181818;stroke-width:1;stroke-dasharray:7,7;"/></g><?plantuml-src TT6zJiCm403WFKznwjvAR4n87P4G0Z5M5JfiDptLiIF79OeG0mYg3Zm0Rv0oLR0WtiGkBqC3KaYJUBI_Ez-FKsGBZ0KCE1O9ciK0xYA0IKwAwtoK5bCO3azWSaiYpwfZ7t92gUCmeyKRp4J8xLmaGQIZO_Lh5TPT_5bEF1QshjjIL2WBIopa3ALG7Ctrqf8C1HtqNdbZrjucEfveBcIOsylf15YHf1AjoFvRQAJqrkYu4MnfZ52iBdEmdBv7bBOq8uQMj6e4ZHKtcZYSDnZ65wVJw3wAzZa23CLp2thM6ktgyWpSnfNVBsuB_i4_kazmfVk0wiglm3-xSlVgr_u9t9VR-BLxXzsRNxdjADf_4rHl_m00?></g></svg>