<svg xmlns="http://www.w3.org/2000/svg" xmlns:xlink="http://www.w3.org/1999/xlink" contentStyleType="text/css" data-diagram-type="DESCRIPTION" height="562px" preserveAspectRatio="none" style="width:387px;height:562px;background:#FFFFFF;" version="1.1" viewBox="0 0 387 562" width="387px" zoomAndPan="magnify"><?plantuml 1.2026.6?><defs/><g><!--cluster ??????? Daymark--><g class="cluster" data-qualified-name="....... Daymark" data-source-line="1" id="ent0001"><path d="M8.5,6 L129.8665,6 A3.75,3.75 0 0 1 132.3665,8.5 L139.3665,28.4883 L369.5,28.4883 A2.5,2.5 0 0 1 372,30.9883 L372,544.94 A2.5,2.5 0 0 1 369.5,547.44 L8.5,547.44 A2.5,2.5 0 0 1 6,544.94 L6,8.5 A2.5,2.5 0 0 1 8.5,6" fill="none" style="stroke:#000000;stroke-width:1.5;"/><line style="stroke:#000000;stroke-width:1.5;" x1="6" x2="139.3665" y1="28.4883" y2="28.4883"/><text fill="#000000" font-family="sans-serif" font-size="14" font-weight="700" lengthAdjust="spacing" textLength="120.3665" x="10" y="21.5352">&#1605;&#1587;&#1578;&#1606;&#1583;&#1575;&#1578; Daymark</text></g><!--entity Readme--><g class="entity" data-qualified-name="....... Daymark.Readme" data-source-line="2" id="ent0002"><path d="M227.73,156.99 L227.73,188.4783 A2.5,2.5 0 0 0 230.23,190.9783 L327.7739,190.9783 A2.5,2.5 0 0 0 330.2739,188.4783 L330.2739,164.49 L320.2739,154.49 L230.23,154.49 A2.5,2.5 0 0 0 227.73,156.99" fill="#F1F1F1" style="stroke:#181818;stroke-width:0.5;"/><path d="M320.2739,154.49 L320.2739,161.99 A2.5,2.5 0 0 0 322.7739,164.49 L330.2739,164.49" fill="#F1F1F1" style="stroke:#181818;stroke-width:0.5;"/><text fill="#000000" font-family="sans-serif" font-size="14" lengthAdjust="spacing" textLength="82.5439" x="237.73" y="178.0252">README.md</text></g><!--entity SRS--><g class="entity" data-qualified-name="....... Daymark.SRS" data-source-line="3" id="ent0003"><path d="M122.88,270.48 L122.88,301.9683 A2.5,2.5 0 0 0 125.38,304.4683 L190.6241,304.4683 A2.5,2.5 0 0 0 193.1241,301.9683 L193.1241,277.98 L183.1241,267.98 L125.38,267.98 A2.5,2.5 0 0 0 122.88,270.48" fill="#F1F1F1" style="stroke:#181818;stroke-width:0.5;"/><path d="M183.1241,267.98 L183.1241,275.48 A2.5,2.5 0 0 0 185.6241,277.98 L193.1241,277.98" fill="#F1F1F1" style="stroke:#181818;stroke-width:0.5;"/><text fill="#000000" font-family="sans-serif" font-size="14" lengthAdjust="spacing" textLength="50.2441" x="132.88" y="291.5152">SRS.md</text></g><!--entity Arch--><g class="entity" data-qualified-name="....... Daymark.Arch" data-source-line="4" id="ent0004"><path d="M93.02,383.96 L93.02,415.4483 A2.5,2.5 0 0 0 95.52,417.9483 L240.4712,417.9483 A2.5,2.5 0 0 0 242.9712,415.4483 L242.9712,391.46 L232.9712,381.46 L95.52,381.46 A2.5,2.5 0 0 0 93.02,383.96" fill="#F1F1F1" style="stroke:#181818;stroke-width:0.5;"/><path d="M232.9712,381.46 L232.9712,388.96 A2.5,2.5 0 0 0 235.4712,391.46 L242.9712,391.46" fill="#F1F1F1" style="stroke:#181818;stroke-width:0.5;"/><text fill="#000000" font-family="sans-serif" font-size="14" lengthAdjust="spacing" textLength="129.9512" x="103.02" y="404.9952">ARCHITECTURE.md</text></g><!--entity ADR--><g class="entity" data-qualified-name="....... Daymark.ADR" data-source-line="5" id="ent0005"><path d="M52.3,497.45 L52.3,528.9383 A2.5,2.5 0 0 0 54.8,531.4383 L139.1984,531.4383 A2.5,2.5 0 0 0 141.6984,528.9383 L141.6984,504.95 L131.6984,494.95 L54.8,494.95 A2.5,2.5 0 0 0 52.3,497.45" fill="#F1F1F1" style="stroke:#181818;stroke-width:0.5;"/><path d="M131.6984,494.95 L131.6984,502.45 A2.5,2.5 0 0 0 134.1984,504.95 L141.6984,504.95" fill="#F1F1F1" style="stroke:#181818;stroke-width:0.5;"/><text fill="#000000" font-family="sans-serif" font-size="14" lengthAdjust="spacing" textLength="69.3984" x="62.3" y="518.4852">ADR/*.md</text></g><!--entity Test--><g class="entity" data-qualified-name="....... Daymark.Test" data-source-line="6" id="ent0006"><path d="M176.33,497.45 L176.33,528.9383 A2.5,2.5 0 0 0 178.83,531.4383 L295.1796,531.4383 A2.5,2.5 0 0 0 297.6796,528.9383 L297.6796,504.95 L287.6796,494.95 L178.83,494.95 A2.5,2.5 0 0 0 176.33,497.45" fill="#F1F1F1" style="stroke:#181818;stroke-width:0.5;"/><path d="M287.6796,494.95 L287.6796,502.45 A2.5,2.5 0 0 0 290.1796,504.95 L297.6796,504.95" fill="#F1F1F1" style="stroke:#181818;stroke-width:0.5;"/><text fill="#000000" font-family="sans-serif" font-size="14" lengthAdjust="spacing" textLength="101.3496" x="186.33" y="518.4852">TEST_PLAN.md</text></g><!--entity Android--><g class="entity" data-qualified-name="....... Daymark.Android" data-source-line="7" id="ent0007"><path d="M21.64,43.5 L21.64,74.9883 A2.5,2.5 0 0 0 24.14,77.4883 L189.8588,77.4883 A2.5,2.5 0 0 0 192.3588,74.9883 L192.3588,51 L182.3588,41 L24.14,41 A2.5,2.5 0 0 0 21.64,43.5" fill="#F1F1F1" style="stroke:#181818;stroke-width:0.5;"/><path d="M182.3588,41 L182.3588,48.5 A2.5,2.5 0 0 0 184.8588,51 L192.3588,51" fill="#F1F1F1" style="stroke:#181818;stroke-width:0.5;"/><text fill="#000000" font-family="sans-serif" font-size="14" lengthAdjust="spacing" textLength="150.7188" x="31.64" y="64.5352">ANDROID_EXPORT.md</text></g><!--entity Release--><g class="entity" data-qualified-name="....... Daymark.Release" data-source-line="8" id="ent0008"><path d="M29.6,156.99 L29.6,188.4783 A2.5,2.5 0 0 0 32.1,190.9783 L181.891,190.9783 A2.5,2.5 0 0 0 184.391,188.4783 L184.391,164.49 L174.391,154.49 L32.1,154.49 A2.5,2.5 0 0 0 29.6,156.99" fill="#F1F1F1" style="stroke:#181818;stroke-width:0.5;"/><path d="M174.391,154.49 L174.391,161.99 A2.5,2.5 0 0 0 176.891,164.49 L184.391,164.49" fill="#F1F1F1" style="stroke:#181818;stroke-width:0.5;"/><text fill="#000000" font-family="sans-serif" font-size="14" lengthAdjust="spacing" textLength="134.791" x="39.6" y="178.0252">RELEASE_NOTES.md</text></g><!--entity User--><g class="entity" data-qualified-name="....... Daymark.User" data-source-line="9" id="ent0009"><path d="M227.54,43.5 L227.54,74.9883 A2.5,2.5 0 0 0 230.04,77.4883 L353.957,77.4883 A2.5,2.5 0 0 0 356.457,74.9883 L356.457,51 L346.457,41 L230.04,41 A2.5,2.5 0 0 0 227.54,43.5" fill="#F1F1F1" style="stroke:#181818;stroke-width:0.5;"/><path d="M346.457,41 L346.457,48.5 A2.5,2.5 0 0 0 348.957,51 L356.457,51" fill="#F1F1F1" style="stroke:#181818;stroke-width:0.5;"/><text fill="#000000" font-family="sans-serif" font-size="14" lengthAdjust="spacing" textLength="108.917" x="237.54" y="64.5352">USER_GUIDE.md</text></g><!--entity Security--><g class="entity" data-qualified-name="....... Daymark.Security" data-source-line="10" id="ent0010"><path d="M228.36,270.48 L228.36,301.9683 A2.5,2.5 0 0 0 230.86,304.4683 L337.1471,304.4683 A2.5,2.5 0 0 0 339.6471,301.9683 L339.6471,277.98 L329.6471,267.98 L230.86,267.98 A2.5,2.5 0 0 0 228.36,270.48" fill="#F1F1F1" style="stroke:#181818;stroke-width:0.5;"/><path d="M329.6471,267.98 L329.6471,275.48 A2.5,2.5 0 0 0 332.1471,277.98 L339.6471,277.98" fill="#F1F1F1" style="stroke:#181818;stroke-width:0.5;"/><text fill="#000000" font-family="sans-serif" font-size="14" lengthAdjust="spacing" textLength="91.2871" x="238.36" y="291.5152">SECURITY.md</text></g><!--link Readme to SRS--><g class="link" data-entity-1="ent0002" data-entity-2="ent0003" data-link-type="dependency" data-source-line="13" id="lnk11"><path d="M259.83,191.4 C237.17,212.27 203.3773,243.4121 180.7573,264.2521" fill="none" id="Readme-to-SRS" style="stroke:#181818;stroke-width:1;"/><polygon fill="#181818" points="177.08,267.64,186.4094,264.4836,180.7573,264.2521,180.9888,258.6,177.08,267.64" style="stroke:#181818;stroke-width:1;stroke-linejoin:miter;stroke-miterlimit:10;"/><text fill="#000000" font-family="sans-serif" font-size="13" lengthAdjust="spacing" textLength="74.3078" x="226.74" y="234.5484">&#1583;&#1575;&#1605;&#1606;&#1607; &#1608; &#1602;&#1575;&#1576;&#1604;&#1740;&#1578;&#8204;&#1607;&#1575;</text></g><!--link SRS to Arch--><g class="link" data-entity-1="ent0003" data-entity-2="ent0004" data-link-type="dependency" data-source-line="14" id="lnk12"><path d="M155.48,304.74 C154.03,317.7 152.88,335.75 155,351.46 C156.34,361.41 157.7388,367.4513 160.4388,376.2213" fill="none" id="SRS-to-Arch" style="stroke:#181818;stroke-width:1;"/><polygon fill="#181818" points="161.91,381,163.0848,371.2215,160.4388,376.2213,155.4389,373.5754,161.91,381" style="stroke:#181818;stroke-width:1;stroke-linejoin:miter;stroke-miterlimit:10;"/><text fill="#000000" font-family="sans-serif" font-size="13" lengthAdjust="spacing" textLength="77.1641" x="156" y="348.0284">&#1606;&#1740;&#1575;&#1586;&#1607;&#1575; &#1576;&#1607; &#1591;&#1585;&#1575;&#1581;&#1740;</text></g><!--link Arch to ADR--><g class="link" data-entity-1="ent0004" data-entity-2="ent0005" data-link-type="dependency" data-source-line="15" id="lnk13"><path d="M144.88,418.23 C135.44,426.39 125.1,436.75 118,447.95 C108.89,462.32 104.4714,476.1551 101.3914,489.6651" fill="none" id="Arch-to-ADR" style="stroke:#181818;stroke-width:1;"/><polygon fill="#181818" points="100.28,494.54,106.1804,486.6543,101.3914,489.6651,98.3805,484.876,100.28,494.54" style="stroke:#181818;stroke-width:1;stroke-linejoin:miter;stroke-miterlimit:10;"/><text fill="#000000" font-family="sans-serif" font-size="13" lengthAdjust="spacing" textLength="70.2651" x="119" y="461.5184">&#1578;&#1589;&#1605;&#1740;&#1605;&#8204;&#1607;&#1575;&#1740; &#1605;&#1607;&#1605;</text></g><!--link Arch to Test--><g class="link" data-entity-1="ent0004" data-entity-2="ent0006" data-link-type="dependency" data-source-line="16" id="lnk14"><path d="M178.78,418.13 C191.67,438.95 210.4777,469.349 223.4377,490.279" fill="none" id="Arch-to-Test" style="stroke:#181818;stroke-width:1;"/><polygon fill="#181818" points="226.07,494.53,224.7327,484.7723,223.4377,490.279,217.9311,488.984,226.07,494.53" style="stroke:#181818;stroke-width:1;stroke-linejoin:miter;stroke-miterlimit:10;"/><text fill="#000000" font-family="sans-serif" font-size="13" lengthAdjust="spacing" textLength="100.0257" x="207.63" y="461.5184">&#1602;&#1575;&#1576;&#1604;&#1740;&#1578;&#8204;&#1607;&#1575;&#1740; &#1602;&#1575;&#1576;&#1604; &#1570;&#1586;&#1605;&#1608;&#1606;</text></g><!--link Android to Release--><g class="link" data-entity-1="ent0007" data-entity-2="ent0008" data-link-type="dependency" data-source-line="17" id="lnk15"><path d="M107,77.66 C107,98.49 107,128.13 107,149.07" fill="none" id="Android-to-Release" style="stroke:#181818;stroke-width:1;"/><polygon fill="#181818" points="107,154.07,111,145.07,107,149.07,103,145.07,107,154.07" style="stroke:#181818;stroke-width:1;stroke-linejoin:miter;stroke-miterlimit:10;"/><text fill="#000000" font-family="sans-serif" font-size="13" lengthAdjust="spacing" textLength="69.3424" x="108" y="121.0584">&#1582;&#1585;&#1608;&#1580;&#1740; &#1575;&#1606;&#1578;&#1588;&#1575;&#1585;</text></g><!--link User to Readme--><g class="link" data-entity-1="ent0009" data-entity-2="ent0002" data-link-type="dependency" data-source-line="18" id="lnk16"><path d="M289.97,77.66 C287.54,98.49 284.0787,128.1636 281.6387,149.1036" fill="none" id="User-to-Readme" style="stroke:#181818;stroke-width:1;"/><polygon fill="#181818" points="281.06,154.07,286.0748,145.5934,281.6387,149.1036,278.1285,144.6675,281.06,154.07" style="stroke:#181818;stroke-width:1;stroke-linejoin:miter;stroke-miterlimit:10;"/><text fill="#000000" font-family="sans-serif" font-size="13" lengthAdjust="spacing" textLength="67.3207" x="287.28" y="121.0584">&#1588;&#1585;&#1608;&#1593; &#1575;&#1587;&#1578;&#1601;&#1575;&#1583;&#1607;</text></g><!--link Security to Arch--><g class="link" data-entity-1="ent0010" data-entity-2="ent0004" data-link-type="dependency" data-source-line="19" id="lnk17"><path d="M273.77,304.88 C265.3,318.57 252.36,337.5 238,351.46 C226.44,362.71 216.1189,370.3423 203.2789,378.4423" fill="none" id="Security-to-Arch" style="stroke:#181818;stroke-width:1;"/><polygon fill="#181818" points="199.05,381.11,208.7961,379.6912,203.2789,378.4423,204.5277,372.925,199.05,381.11" style="stroke:#181818;stroke-width:1;stroke-linejoin:miter;stroke-miterlimit:10;"/><text fill="#000000" font-family="sans-serif" font-size="13" lengthAdjust="spacing" textLength="77.6995" x="253.45" y="348.0284">&#1705;&#1606;&#1578;&#1585;&#1604;&#8204;&#1607;&#1575;&#1740; &#1575;&#1605;&#1606;&#1740;&#1578;&#1740;</text></g><?plantuml-src PLB1IiD05BplLpnw5Aft3q9e5WtKjcmIq5C8pHQBhOMa7ee8AatIGxx2IpMe9LeH_sIVkVabxgPfKl2KvStCUpD31fEHntreO2W-H8gHM8cbI45tPsFNlsp03G4O34SS6eng-YdT7tiDS0DWtFN6l09DPcuH-Qp66ckT61PjMJQhb9hVlwW9EZlOgn2TLO15JSlfjRNE5hHuCArb7Prr3TsXPxqkiohzbUTFXjwEupRLJEfqkd9RRNp4tQ1sRfkKESUseLS6xO3xTJ3QifbXdLVfUF_Q7qvdv9QGJGVGR1wfq708gZmCCS8OS07u8AjymdcUYFJtBi5OB8dYARugGGemak1Il2iC93S6yIKoENdD4r9m2hBErF9KV6AO9nYMo_84vB4OmvgfIb9h_rzMv78Aub5U37614IahAyHbC-hKcyXm8LwaI0QAvEMrb6P4DLDIY-IIkIwOtv9N_3_tyhl2c6nhsWtxyroiod1UUzhqfNpcoHy0?></g></svg>