<svg xmlns="http://www.w3.org/2000/svg" xmlns:xlink="http://www.w3.org/1999/xlink" contentStyleType="text/css" data-diagram-type="DESCRIPTION" height="562px" preserveAspectRatio="none" style="width:626px;height:562px;background:#FFFFFF;" version="1.1" viewBox="0 0 626 562" width="626px" zoomAndPan="magnify"><?plantuml 1.2026.6?><defs/><g><!--cluster ??????? Daymark--><g class="cluster" data-qualified-name="....... Daymark" data-source-line="1" id="ent0001"><path d="M8.5,6 L129.8665,6 A3.75,3.75 0 0 1 132.3665,8.5 L139.3665,28.4883 L608.5,28.4883 A2.5,2.5 0 0 1 611,30.9883 L611,544.94 A2.5,2.5 0 0 1 608.5,547.44 L8.5,547.44 A2.5,2.5 0 0 1 6,544.94 L6,8.5 A2.5,2.5 0 0 1 8.5,6" fill="none" style="stroke:#000000;stroke-width:1.5;"/><line style="stroke:#000000;stroke-width:1.5;" x1="6" x2="139.3665" y1="28.4883" y2="28.4883"/><text fill="#000000" font-family="sans-serif" font-size="14" font-weight="700" lengthAdjust="spacing" textLength="120.3665" x="10" y="21.5352">&#1605;&#1587;&#1578;&#1606;&#1583;&#1575;&#1578; Daymark</text></g><!--entity Readme--><g class="entity" data-qualified-name="....... Daymark.Readme" data-source-line="2" id="ent0002"><path d="M314.73,156.99 L314.73,188.4783 A2.5,2.5 0 0 0 317.23,190.9783 L414.7739,190.9783 A2.5,2.5 0 0 0 417.2739,188.4783 L417.2739,164.49 L407.2739,154.49 L317.23,154.49 A2.5,2.5 0 0 0 314.73,156.99" fill="#F1F1F1" style="stroke:#181818;stroke-width:0.5;"/><path d="M407.2739,154.49 L407.2739,161.99 A2.5,2.5 0 0 0 409.7739,164.49 L417.2739,164.49" fill="#F1F1F1" style="stroke:#181818;stroke-width:0.5;"/><text fill="#000000" font-family="sans-serif" font-size="14" lengthAdjust="spacing" textLength="82.5439" x="324.73" y="178.0252">README.md</text></g><!--entity SRS--><g class="entity" data-qualified-name="....... Daymark.SRS" data-source-line="3" id="ent0003"><path d="M330.88,270.48 L330.88,301.9683 A2.5,2.5 0 0 0 333.38,304.4683 L398.6241,304.4683 A2.5,2.5 0 0 0 401.1241,301.9683 L401.1241,277.98 L391.1241,267.98 L333.38,267.98 A2.5,2.5 0 0 0 330.88,270.48" fill="#F1F1F1" style="stroke:#181818;stroke-width:0.5;"/><path d="M391.1241,267.98 L391.1241,275.48 A2.5,2.5 0 0 0 393.6241,277.98 L401.1241,277.98" fill="#F1F1F1" style="stroke:#181818;stroke-width:0.5;"/><text fill="#000000" font-family="sans-serif" font-size="14" lengthAdjust="spacing" textLength="50.2441" x="340.88" y="291.5152">SRS.md</text></g><!--entity Arch--><g class="entity" data-qualified-name="....... Daymark.Arch" data-source-line="4" id="ent0004"><path d="M353.02,383.96 L353.02,415.4483 A2.5,2.5 0 0 0 355.52,417.9483 L500.4712,417.9483 A2.5,2.5 0 0 0 502.9712,415.4483 L502.9712,391.46 L492.9712,381.46 L355.52,381.46 A2.5,2.5 0 0 0 353.02,383.96" fill="#F1F1F1" style="stroke:#181818;stroke-width:0.5;"/><path d="M492.9712,381.46 L492.9712,388.96 A2.5,2.5 0 0 0 495.4712,391.46 L502.9712,391.46" fill="#F1F1F1" style="stroke:#181818;stroke-width:0.5;"/><text fill="#000000" font-family="sans-serif" font-size="14" lengthAdjust="spacing" textLength="129.9512" x="363.02" y="404.9952">ARCHITECTURE.md</text></g><!--entity ADR--><g class="entity" data-qualified-name="....... Daymark.ADR" data-source-line="5" id="ent0005"><path d="M300.3,497.45 L300.3,528.9383 A2.5,2.5 0 0 0 302.8,531.4383 L387.1984,531.4383 A2.5,2.5 0 0 0 389.6984,528.9383 L389.6984,504.95 L379.6984,494.95 L302.8,494.95 A2.5,2.5 0 0 0 300.3,497.45" fill="#F1F1F1" style="stroke:#181818;stroke-width:0.5;"/><path d="M379.6984,494.95 L379.6984,502.45 A2.5,2.5 0 0 0 382.1984,504.95 L389.6984,504.95" fill="#F1F1F1" style="stroke:#181818;stroke-width:0.5;"/><text fill="#000000" font-family="sans-serif" font-size="14" lengthAdjust="spacing" textLength="69.3984" x="310.3" y="518.4852">ADR/*.md</text></g><!--entity Test--><g class="entity" data-qualified-name="....... Daymark.Test" data-source-line="6" id="ent0006"><path d="M424.33,497.45 L424.33,528.9383 A2.5,2.5 0 0 0 426.83,531.4383 L543.1796,531.4383 A2.5,2.5 0 0 0 545.6796,528.9383 L545.6796,504.95 L535.6796,494.95 L426.83,494.95 A2.5,2.5 0 0 0 424.33,497.45" fill="#F1F1F1" style="stroke:#181818;stroke-width:0.5;"/><path d="M535.6796,494.95 L535.6796,502.45 A2.5,2.5 0 0 0 538.1796,504.95 L545.6796,504.95" fill="#F1F1F1" style="stroke:#181818;stroke-width:0.5;"/><text fill="#000000" font-family="sans-serif" font-size="14" lengthAdjust="spacing" textLength="101.3496" x="434.33" y="518.4852">TEST_PLAN.md</text></g><!--entity Android--><g class="entity" data-qualified-name="....... Daymark.Android" data-source-line="7" id="ent0007"><path d="M21.64,43.5 L21.64,74.9883 A2.5,2.5 0 0 0 24.14,77.4883 L189.8588,77.4883 A2.5,2.5 0 0 0 192.3588,74.9883 L192.3588,51 L182.3588,41 L24.14,41 A2.5,2.5 0 0 0 21.64,43.5" fill="#F1F1F1" style="stroke:#181818;stroke-width:0.5;"/><path d="M182.3588,41 L182.3588,48.5 A2.5,2.5 0 0 0 184.8588,51 L192.3588,51" fill="#F1F1F1" style="stroke:#181818;stroke-width:0.5;"/><text fill="#000000" font-family="sans-serif" font-size="14" lengthAdjust="spacing" textLength="150.7188" x="31.64" y="64.5352">ANDROID_EXPORT.md</text></g><!--entity Release--><g class="entity" data-qualified-name="....... Daymark.Release" data-source-line="8" id="ent0008"><path d="M29.6,156.99 L29.6,188.4783 A2.5,2.5 0 0 0 32.1,190.9783 L181.891,190.9783 A2.5,2.5 0 0 0 184.391,188.4783 L184.391,164.49 L174.391,154.49 L32.1,154.49 A2.5,2.5 0 0 0 29.6,156.99" fill="#F1F1F1" style="stroke:#181818;stroke-width:0.5;"/><path d="M174.391,154.49 L174.391,161.99 A2.5,2.5 0 0 0 176.891,164.49 L184.391,164.49" fill="#F1F1F1" style="stroke:#181818;stroke-width:0.5;"/><text fill="#000000" font-family="sans-serif" font-size="14" lengthAdjust="spacing" textLength="134.791" x="39.6" y="178.0252">RELEASE_NOTES.md</text></g><!--entity User--><g class="entity" data-qualified-name="....... Daymark.User" data-source-line="9" id="ent0009"><path d="M227.54,43.5 L227.54,74.9883 A2.5,2.5 0 0 0 230.04,77.4883 L353.957,77.4883 A2.5,2.5 0 0 0 356.457,74.9883 L356.457,51 L346.457,41 L230.04,41 A2.5,2.5 0 0 0 227.54,43.5" fill="#F1F1F1" style="stroke:#181818;stroke-width:0.5;"/><path d="M346.457,41 L346.457,48.5 A2.5,2.5 0 0 0 348.957,51 L356.457,51" fill="#F1F1F1" style="stroke:#181818;stroke-width:0.5;"/><text fill="#000000" font-family="sans-serif" font-size="14" lengthAdjust="spacing" textLength="108.917" x="237.54" y="64.5352">USER_GUIDE.md</text></g><!--entity Security--><g class="entity" data-qualified-name="....... Daymark.Security" data-source-line="10" id="ent0010"><path d="M436.36,270.48 L436.36,301.9683 A2.5,2.5 0 0 0 438.86,304.4683 L545.1471,304.4683 A2.5,2.5 0 0 0 547.6471,301.9683 L547.6471,277.98 L537.6471,267.98 L438.86,267.98 A2.5,2.5 0 0 0 436.36,270.48" fill="#F1F1F1" style="stroke:#181818;stroke-width:0.5;"/><path d="M537.6471,267.98 L537.6471,275.48 A2.5,2.5 0 0 0 540.1471,277.98 L547.6471,277.98" fill="#F1F1F1" style="stroke:#181818;stroke-width:0.5;"/><text fill="#000000" font-family="sans-serif" font-size="14" lengthAdjust="spacing" textLength="91.2871" x="446.36" y="291.5152">SECURITY.md</text></g><!--entity Team--><g class="entity" data-qualified-name="....... Daymark.Team" data-source-line="11" id="ent0011"><path d="M391.24,43.5 L391.24,74.9883 A2.5,2.5 0 0 0 393.74,77.4883 L592.2507,77.4883 A2.5,2.5 0 0 0 594.7507,74.9883 L594.7507,51 L584.7507,41 L393.74,41 A2.5,2.5 0 0 0 391.24,43.5" fill="#F1F1F1" style="stroke:#181818;stroke-width:0.5;"/><path d="M584.7507,41 L584.7507,48.5 A2.5,2.5 0 0 0 587.2507,51 L594.7507,51" fill="#F1F1F1" style="stroke:#181818;stroke-width:0.5;"/><text fill="#000000" font-family="sans-serif" font-size="14" lengthAdjust="spacing" textLength="183.5107" x="401.24" y="64.5352">TEAM_CONTRIBUTIONS.md</text></g><!--link Readme to SRS--><g class="link" data-entity-1="ent0002" data-entity-2="ent0003" data-link-type="dependency" data-source-line="14" id="lnk12"><path d="M366,191.15 C366,211.97 366,241.62 366,262.55" fill="none" id="Readme-to-SRS" style="stroke:#181818;stroke-width:1;"/><polygon fill="#181818" points="366,267.55,370,258.55,366,262.55,362,258.55,366,267.55" style="stroke:#181818;stroke-width:1;stroke-linejoin:miter;stroke-miterlimit:10;"/><text fill="#000000" font-family="sans-serif" font-size="13" lengthAdjust="spacing" textLength="74.3078" x="367" y="234.5484">&#1583;&#1575;&#1605;&#1606;&#1607; &#1608; &#1602;&#1575;&#1576;&#1604;&#1740;&#1578;&#8204;&#1607;&#1575;</text></g><!--link SRS to Arch--><g class="link" data-entity-1="ent0003" data-entity-2="ent0004" data-link-type="dependency" data-source-line="15" id="lnk13"><path d="M362.69,304.83 C361.04,318.33 360.71,337.02 368,351.46 C374.09,363.54 380.7785,370.6018 391.5185,378.2018" fill="none" id="SRS-to-Arch" style="stroke:#181818;stroke-width:1;"/><polygon fill="#181818" points="395.6,381.09,390.5639,372.6261,391.5185,378.2018,385.9428,379.1564,395.6,381.09" style="stroke:#181818;stroke-width:1;stroke-linejoin:miter;stroke-miterlimit:10;"/><text fill="#000000" font-family="sans-serif" font-size="13" lengthAdjust="spacing" textLength="77.1641" x="369" y="348.0284">&#1606;&#1740;&#1575;&#1586;&#1607;&#1575; &#1576;&#1607; &#1591;&#1585;&#1575;&#1581;&#1740;</text></g><!--link Arch to ADR--><g class="link" data-entity-1="ent0004" data-entity-2="ent0005" data-link-type="dependency" data-source-line="16" id="lnk14"><path d="M402.76,418.41 C392.54,426.52 381.23,436.81 373,447.95 C362.45,462.24 356.4231,476.394 351.8231,489.984" fill="none" id="Arch-to-ADR" style="stroke:#181818;stroke-width:1;"/><polygon fill="#181818" points="350.22,494.72,356.8944,487.4776,351.8231,489.984,349.3167,484.9127,350.22,494.72" style="stroke:#181818;stroke-width:1;stroke-linejoin:miter;stroke-miterlimit:10;"/><text fill="#000000" font-family="sans-serif" font-size="13" lengthAdjust="spacing" textLength="70.2651" x="374" y="461.5184">&#1578;&#1589;&#1605;&#1740;&#1605;&#8204;&#1607;&#1575;&#1740; &#1605;&#1607;&#1605;</text></g><!--link Arch to Test--><g class="link" data-entity-1="ent0004" data-entity-2="ent0006" data-link-type="dependency" data-source-line="17" id="lnk15"><path d="M436.91,418.13 C447.55,438.95 462.994,469.148 473.694,490.078" fill="none" id="Arch-to-Test" style="stroke:#181818;stroke-width:1;"/><polygon fill="#181818" points="475.97,494.53,475.4348,484.6957,473.694,490.078,468.3117,488.3372,475.97,494.53" style="stroke:#181818;stroke-width:1;stroke-linejoin:miter;stroke-miterlimit:10;"/><text fill="#000000" font-family="sans-serif" font-size="13" lengthAdjust="spacing" textLength="100.0257" x="460.91" y="461.5184">&#1602;&#1575;&#1576;&#1604;&#1740;&#1578;&#8204;&#1607;&#1575;&#1740; &#1602;&#1575;&#1576;&#1604; &#1570;&#1586;&#1605;&#1608;&#1606;</text></g><!--link Android to Release--><g class="link" data-entity-1="ent0007" data-entity-2="ent0008" data-link-type="dependency" data-source-line="18" id="lnk16"><path d="M107,77.66 C107,98.49 107,128.13 107,149.07" fill="none" id="Android-to-Release" style="stroke:#181818;stroke-width:1;"/><polygon fill="#181818" points="107,154.07,111,145.07,107,149.07,103,145.07,107,154.07" style="stroke:#181818;stroke-width:1;stroke-linejoin:miter;stroke-miterlimit:10;"/><text fill="#000000" font-family="sans-serif" font-size="13" lengthAdjust="spacing" textLength="69.3424" x="108" y="121.0584">&#1582;&#1585;&#1608;&#1580;&#1740; &#1575;&#1606;&#1578;&#1588;&#1575;&#1585;</text></g><!--link User to Readme--><g class="link" data-entity-1="ent0009" data-entity-2="ent0002" data-link-type="dependency" data-source-line="19" id="lnk17"><path d="M303.56,77.66 C317.38,98.49 337.6161,128.9633 351.5061,149.9033" fill="none" id="User-to-Readme" style="stroke:#181818;stroke-width:1;"/><polygon fill="#181818" points="354.27,154.07,352.6284,144.3589,351.5061,149.9033,345.9617,148.7811,354.27,154.07" style="stroke:#181818;stroke-width:1;stroke-linejoin:miter;stroke-miterlimit:10;"/><text fill="#000000" font-family="sans-serif" font-size="13" lengthAdjust="spacing" textLength="67.3207" x="334.43" y="121.0584">&#1588;&#1585;&#1608;&#1593; &#1575;&#1587;&#1578;&#1601;&#1575;&#1583;&#1607;</text></g><!--link Security to Arch--><g class="link" data-entity-1="ent0010" data-entity-2="ent0004" data-link-type="dependency" data-source-line="20" id="lnk18"><path d="M482,304.64 C470.05,325.46 452.6501,355.7741 440.6301,376.7041" fill="none" id="Security-to-Arch" style="stroke:#181818;stroke-width:1;"/><polygon fill="#181818" points="438.14,381.04,446.0908,375.2275,440.6301,376.7041,439.1534,371.2434,438.14,381.04" style="stroke:#181818;stroke-width:1;stroke-linejoin:miter;stroke-miterlimit:10;"/><text fill="#000000" font-family="sans-serif" font-size="13" lengthAdjust="spacing" textLength="77.6995" x="464.83" y="348.0284">&#1705;&#1606;&#1578;&#1585;&#1604;&#8204;&#1607;&#1575;&#1740; &#1575;&#1605;&#1606;&#1740;&#1578;&#1740;</text></g><!--link Team to Readme--><g class="link" data-entity-1="ent0011" data-entity-2="ent0002" data-link-type="dependency" data-source-line="21" id="lnk19"><path d="M472.88,77.91 C449.1,98.78 413.5276,130.0114 389.7876,150.8514" fill="none" id="Team-to-Readme" style="stroke:#181818;stroke-width:1;"/><polygon fill="#181818" points="386.03,154.15,395.4325,151.2186,389.7876,150.8514,390.1548,145.2065,386.03,154.15" style="stroke:#181818;stroke-width:1;stroke-linejoin:miter;stroke-miterlimit:10;"/><text fill="#000000" font-family="sans-serif" font-size="13" lengthAdjust="spacing" textLength="89.0415" x="438.1" y="121.0584">&#1575;&#1593;&#1590;&#1575; &#1608; &#1605;&#1587;&#1574;&#1608;&#1604;&#1740;&#1578;&#8204;&#1607;&#1575;</text></g><?plantuml-src PLBBIiD05DtFLrow5DIz2o4sWmPiKYOJq5K8JSHYgv3gGaHGCKaN-GeNLeiFwfF-oLoxyqky4zEaw2hXddFkFUSmUqUzC8gXWObwLMDCrRCQgJ6OmMa_Y0yQSCO0zhgz21g26sQBh_J31WG3454GzgCAT8KxH-Yt6XkYkML9tfIUg9H6tDcl2QPONQeGKrI0vAxqszk6FGTbD3YkPROf7Clq-KxR4RBI7uRnKJTSSBpD3PVxjaFRQkEzA1ZKpZsN2t_JiypAe3U8uZeORth2ahjLkgXp4dUFJnUC6Ys_wTXIM1kUj1pRhHq7VNREs6zLiBoyhhk1DT0TOu8fPe13m2jg_0wlPxaQVr_acAaHqppDrrsH05C2H-f5Oq3S3DIdcj3aSPQpWbEGJQ6NZzKx9hCSatBPB0Swbc5ICtMNUkt_ovfSJa7TqCK4XvYoijb2N1QeJpsf2GxL0uaeK4gNtqWwORh0abea9-PRmPmIhtXcb_HznepDsrmC-tLVh9hWTUtfjo_jamBhNl-i7wcf-g1kT9tw8T-IwyLOFm00?></g></svg>