<svg xmlns="http://www.w3.org/2000/svg" xmlns:xlink="http://www.w3.org/1999/xlink" contentStyleType="text/css" data-diagram-type="DESCRIPTION" height="396px" preserveAspectRatio="none" style="width:609px;height:396px;background:#FFFFFF;" version="1.1" viewBox="0 0 609 396" width="609px" zoomAndPan="magnify"><?plantuml 1.2026.6?><defs/><g><!--entity Product--><g class="entity" data-qualified-name="Product" data-source-line="4" id="ent0001"><rect fill="#F1F1F1" height="36.4883" rx="2.5" ry="2.5" style="stroke:#181818;stroke-width:0.5;" width="139.0205" x="202.73" y="345.93"/><text fill="#000000" font-family="sans-serif" font-size="14" lengthAdjust="spacing" textLength="119.0205" x="212.73" y="369.4652">Daymark Android</text></g><!--entity Core--><g class="entity" data-qualified-name="Core" data-source-line="6" id="ent0002"><rect fill="#F1F1F1" height="52.9766" rx="2.5" ry="2.5" style="stroke:#181818;stroke-width:0.5;" width="128.4029" x="171.04" y="119.98"/><text fill="#000000" font-family="sans-serif" font-size="14" lengthAdjust="spacing" textLength="108.4029" x="181.04" y="143.5152">&#1605;&#1593;&#1605;&#1575;&#1585;&#1740; &#1608; &#1605;&#1606;&#1591;&#1602; &#1607;&#1587;&#1578;&#1607;</text><text fill="#000000" font-family="sans-serif" font-size="14" lengthAdjust="spacing" textLength="85.3529" x="181.04" y="160.0034">&#1593;&#1604;&#1740; &#1575;&#1576;&#1585;&#1575;&#1607;&#1740;&#1605;&#1740; &#1606;&#1740;&#1575;</text></g><!--entity UI1--><g class="entity" data-qualified-name="UI1" data-source-line="7" id="ent0003"><rect fill="#F1F1F1" height="52.9766" rx="2.5" ry="2.5" style="stroke:#181818;stroke-width:0.5;" width="148.4834" x="7" y="232.96"/><text fill="#000000" font-family="sans-serif" font-size="14" lengthAdjust="spacing" textLength="128.4834" x="17" y="256.4952">&#1585;&#1575;&#1576;&#1591; Tasks &#1608; History</text><text fill="#000000" font-family="sans-serif" font-size="14" lengthAdjust="spacing" textLength="84.284" x="17" y="272.9834">&#1575;&#1605;&#1740;&#1585;&#1581;&#1587;&#1740;&#1606; &#1585;&#1575;&#1576;&#1593;&#1740;</text></g><!--entity UI2--><g class="entity" data-qualified-name="UI2" data-source-line="8" id="ent0004"><rect fill="#F1F1F1" height="52.9766" rx="2.5" ry="2.5" style="stroke:#181818;stroke-width:0.5;" width="144.1084" x="448.19" y="232.96"/><text fill="#000000" font-family="sans-serif" font-size="14" lengthAdjust="spacing" textLength="124.1084" x="458.19" y="256.4952">&#1585;&#1575;&#1576;&#1591; Planner &#1608; Mine</text><text fill="#000000" font-family="sans-serif" font-size="14" lengthAdjust="spacing" textLength="91.22" x="458.19" y="272.9834">&#1605;&#1607;&#1583;&#1740; &#1575;&#1576;&#1585;&#1575;&#1607;&#1740;&#1605; &#1586;&#1575;&#1583;&#1607;</text></g><!--entity UX1--><g class="entity" data-qualified-name="UX1" data-source-line="9" id="ent0005"><rect fill="#F1F1F1" height="52.9766" rx="2.5" ry="2.5" style="stroke:#181818;stroke-width:0.5;" width="115.2219" x="215.63" y="7"/><text fill="#000000" font-family="sans-serif" font-size="14" lengthAdjust="spacing" textLength="95.2219" x="225.63" y="30.5352">UX &#1605;&#1583;&#1740;&#1585;&#1740;&#1578; &#1608;&#1592;&#1575;&#1740;&#1601;</text><text fill="#000000" font-family="sans-serif" font-size="14" lengthAdjust="spacing" textLength="77.8473" x="225.63" y="47.0234">&#1605;&#1580;&#1578;&#1576;&#1740; &#1605;&#1581;&#1605;&#1608;&#1583;&#1740;</text></g><!--entity DB--><g class="entity" data-qualified-name="DB" data-source-line="10" id="ent0006"><rect fill="#F1F1F1" height="52.9766" rx="2.5" ry="2.5" style="stroke:#181818;stroke-width:0.5;" width="151.7374" x="261.37" y="232.96"/><text fill="#000000" font-family="sans-serif" font-size="14" lengthAdjust="spacing" textLength="131.7374" x="271.37" y="256.4952">&#1662;&#1575;&#1740;&#1711;&#1575;&#1607; &#1583;&#1575;&#1583;&#1607; &#1608; Migration</text><text fill="#000000" font-family="sans-serif" font-size="14" lengthAdjust="spacing" textLength="71.1504" x="271.37" y="272.9834">&#1593;&#1604;&#1740; &#1585;&#1590;&#1575; &#1586;&#1575;&#1583;&#1607;</text></g><!--entity UX2--><g class="entity" data-qualified-name="UX2" data-source-line="11" id="ent0007"><rect fill="#F1F1F1" height="52.9766" rx="2.5" ry="2.5" style="stroke:#181818;stroke-width:0.5;" width="207.0835" x="388.7" y="119.98"/><text fill="#000000" font-family="sans-serif" font-size="14" lengthAdjust="spacing" textLength="187.0835" x="398.7" y="143.5152">UX Planner &#1608; Design System</text><text fill="#000000" font-family="sans-serif" font-size="14" lengthAdjust="spacing" textLength="68.9233" x="398.7" y="160.0034">&#1605;&#1607;&#1583;&#1740; &#1606;&#1585;&#1740;&#1605;&#1575;&#1606;&#1740;</text></g><!--link Core to Product--><g class="link" data-entity-1="ent0002" data-entity-2="ent0001" data-link-type="dependency" data-source-line="13" id="lnk8"><path d="M241.83,173.16 C241.83,217.9 241.83,301.9 241.83,340.54" fill="none" id="Core-to-Product" style="stroke:#181818;stroke-width:1;"/><polygon fill="#181818" points="241.83,345.54,245.83,336.54,241.83,340.54,237.83,336.54,241.83,345.54" style="stroke:#181818;stroke-width:1;stroke-linejoin:miter;stroke-miterlimit:10;"/></g><!--link UI1 to Product--><g class="link" data-entity-1="ent0003" data-entity-2="ent0001" data-link-type="dependency" data-source-line="14" id="lnk9"><path d="M155.89,268.42 C189.72,268.42 222.28,268.42 222.28,268.42 C222.28,268.42 222.28,312.89 222.28,340.71" fill="none" id="UI1-to-Product" style="stroke:#181818;stroke-width:1;"/><polygon fill="#181818" points="222.28,345.71,226.28,336.71,222.28,340.71,218.28,336.71,222.28,345.71" style="stroke:#181818;stroke-width:1;stroke-linejoin:miter;stroke-miterlimit:10;"/></g><!--link UI2 to Product--><g class="link" data-entity-1="ent0004" data-entity-2="ent0001" data-link-type="dependency" data-source-line="15" id="lnk10"><path d="M520.24,286.21 C520.24,317.31 520.24,364.42 520.24,364.42 C520.24,364.42 420.34,364.42 346.98,364.42" fill="none" id="UI2-to-Product" style="stroke:#181818;stroke-width:1;"/><polygon fill="#181818" points="341.98,364.42,350.98,368.42,346.98,364.42,350.98,360.42,341.98,364.42" style="stroke:#181818;stroke-width:1;stroke-linejoin:miter;stroke-miterlimit:10;"/></g><!--link DB to Product--><g class="link" data-entity-1="ent0006" data-entity-2="ent0001" data-link-type="dependency" data-source-line="16" id="lnk11"><path d="M301.56,286.41 C301.56,304.96 301.56,324.11 301.56,340.55" fill="none" id="DB-to-Product" style="stroke:#181818;stroke-width:1;"/><polygon fill="#181818" points="301.56,345.55,305.56,336.55,301.56,340.55,297.56,336.55,301.56,345.55" style="stroke:#181818;stroke-width:1;stroke-linejoin:miter;stroke-miterlimit:10;"/></g><!--link UX1 to UI1--><g class="link" data-entity-1="ent0005" data-entity-2="ent0003" data-link-type="dependency" data-source-line="17" id="lnk12"><path d="M215.38,33.42 C158.84,33.42 81.24,33.42 81.24,33.42 C81.24,33.42 81.24,167.76 81.24,227.63" fill="none" id="UX1-to-UI1" style="stroke:#181818;stroke-width:1;"/><polygon fill="#181818" points="81.24,232.63,85.24,223.63,81.24,227.63,77.24,223.63,81.24,232.63" style="stroke:#181818;stroke-width:1;stroke-linejoin:miter;stroke-miterlimit:10;"/><text fill="#000000" font-family="sans-serif" font-size="13" lengthAdjust="spacing" textLength="68.5601" x="12.24" y="62.5284">&#1591;&#1585;&#1581; &#1608; &#1575;&#1585;&#1586;&#1740;&#1575;&#1576;&#1740;</text></g><!--link UX2 to UI2--><g class="link" data-entity-1="ent0007" data-entity-2="ent0004" data-link-type="dependency" data-source-line="18" id="lnk13"><path d="M544.26,173.24 C544.26,191.12 544.26,209.55 544.26,227.47" fill="none" id="UX2-to-UI2" style="stroke:#181818;stroke-width:1;"/><polygon fill="#181818" points="544.26,232.47,548.26,223.47,544.26,227.47,540.26,223.47,544.26,232.47" style="stroke:#181818;stroke-width:1;stroke-linejoin:miter;stroke-miterlimit:10;"/><text fill="#000000" font-family="sans-serif" font-size="13" lengthAdjust="spacing" textLength="68.5601" x="475.26" y="199.4284">&#1591;&#1585;&#1581; &#1608; &#1575;&#1585;&#1586;&#1740;&#1575;&#1576;&#1740;</text></g><!--link Core to DB--><g class="link" data-entity-1="ent0002" data-entity-2="ent0006" data-link-type="dependency" data-source-line="19" id="lnk14"><path d="M274.06,178.24 C274.06,196.12 274.06,209.55 274.06,227.47" fill="none" id="Core-DB" style="stroke:#181818;stroke-width:1;"/><polygon fill="#181818" points="274.06,173.24,270.06,182.24,274.06,178.24,278.06,182.24,274.06,173.24" style="stroke:#181818;stroke-width:1;stroke-linejoin:miter;stroke-miterlimit:10;"/><polygon fill="#181818" points="274.06,232.47,278.06,223.47,274.06,227.47,270.06,223.47,274.06,232.47" style="stroke:#181818;stroke-width:1;stroke-linejoin:miter;stroke-miterlimit:10;"/><text fill="#000000" font-family="sans-serif" font-size="13" lengthAdjust="spacing" textLength="56.5715" x="217.06" y="199.4284">&#1602;&#1585;&#1575;&#1585;&#1583;&#1575;&#1583; &#1583;&#1575;&#1583;&#1607;</text></g><!--link Core to UI1--><g class="link" data-entity-1="ent0002" data-entity-2="ent0003" data-link-type="dependency" data-source-line="20" id="lnk15"><path d="M186.89,178.24 C186.89,209.04 186.89,250.42 186.89,250.42 C186.89,250.42 178.24,250.42 160.76,250.42" fill="none" id="Core-UI1" style="stroke:#181818;stroke-width:1;"/><polygon fill="#181818" points="186.89,173.24,182.89,182.24,186.89,178.24,190.89,182.24,186.89,173.24" style="stroke:#181818;stroke-width:1;stroke-linejoin:miter;stroke-miterlimit:10;"/><polygon fill="#181818" points="155.76,250.42,164.76,254.42,160.76,250.42,164.76,246.42,155.76,250.42" style="stroke:#181818;stroke-width:1;stroke-linejoin:miter;stroke-miterlimit:10;"/><text fill="#000000" font-family="sans-serif" font-size="13" lengthAdjust="spacing" textLength="88.1704" x="97.89" y="223.9584">&#1602;&#1585;&#1575;&#1585;&#1583;&#1575;&#1583; &#1605;&#1606;&#1591;&#1602; &#1608; UI</text></g><!--link Core to UI2--><g class="link" data-entity-1="ent0002" data-entity-2="ent0004" data-link-type="dependency" data-source-line="21" id="lnk16"><path d="M286.75,178.28 C286.75,193.05 286.75,203.42 286.75,203.42 C286.75,203.42 496.22,203.42 496.22,203.42 C496.22,203.42 496.22,213.31 496.22,227.74" fill="none" id="Core-UI2" style="stroke:#181818;stroke-width:1;"/><polygon fill="#181818" points="286.75,173.28,282.75,182.28,286.75,178.28,290.75,182.28,286.75,173.28" style="stroke:#181818;stroke-width:1;stroke-linejoin:miter;stroke-miterlimit:10;"/><polygon fill="#181818" points="496.22,232.74,500.22,223.74,496.22,227.74,492.22,223.74,496.22,232.74" style="stroke:#181818;stroke-width:1;stroke-linejoin:miter;stroke-miterlimit:10;"/><text fill="#000000" font-family="sans-serif" font-size="13" lengthAdjust="spacing" textLength="116.0266" x="274.08" y="216.9884">analytics &#1608; planner</text></g><!--link UX1 to UX2--><g class="link" data-entity-1="ent0005" data-entity-2="ent0007" data-link-type="dependency" data-source-line="22" id="lnk17"><path d="M315.15,65.25 C315.15,98.65 315.15,146.42 315.15,146.42 C315.15,146.42 344.65,146.42 383.2,146.42" fill="none" id="UX1-UX2" style="stroke:#181818;stroke-width:1;"/><polygon fill="#181818" points="315.15,60.25,311.15,69.25,315.15,65.25,319.15,69.25,315.15,60.25" style="stroke:#181818;stroke-width:1;stroke-linejoin:miter;stroke-miterlimit:10;"/><polygon fill="#181818" points="388.2,146.42,379.2,142.42,383.2,146.42,379.2,150.42,388.2,146.42" style="stroke:#181818;stroke-width:1;stroke-linejoin:miter;stroke-miterlimit:10;"/><text fill="#000000" font-family="sans-serif" font-size="13" lengthAdjust="spacing" textLength="92.314" x="292.65" y="153.4284">Design System</text></g><?plantuml-src VPB1Ji9048RlVOe9Tm_sQ8o9o44F9YP8me7B1ZROK7R9TZtqA17AWVSe8HfIJKGlFiUil8mpBQaj6WyzRFURV_xvPwDHe2R2Y37qzNYYbLIsRUDGWf5zAzGmb5vK8c6Wf8qd4hInTzhpIWOQBH6FXHd1kHeO7GmQ82AuCNfmtxUULqf3mytmWxuKizqIt0BSpCrnwwRW4dp5jKjwYe17kYHcXHccBjajtOpf-Mw9QQvyeOsigZ97z1PkHJIAMFSoYAmsCQcbN4p0CxwIq1psxCTkcKjrhex_LBe9XLBIiDOrZTrJv3J1pIzZW2_qO-EIlPfVLUjqQK0kud5nJMBuZYcLFR0UFk4QLppP39z9Vi5a8TEjcNAVNFIruPw0cw9VuMneX0sq-aajmpTCwwPQpGDFbTbQCWg62jfnPEMuCYHj9UFngEMyDELx7YSFHqTdvN8fluEpNpktclNhRe5psGdWbXV3FlX5u0ilc1CXpDzZ_dzOxkQKGMfp0cwQhoyh8YgJgc15smFkvmqk2AZHt5qe4SOswEVlQb94byzHC5rcQZ5-0m00?></g></svg>